<?xml version="1.0" encoding="UTF-8"?>
<svg xmlns="http://www.w3.org/2000/svg" viewBox="-2 200.61 964 558.77">
  <!-- Generated from amCharts geodata | Mercator projection -->
    <path d="M365.01,439.84L365.33,441.63L366.45,445.64L365.33,446.75L364.9,449.15L363.09,449.95L362.24,454.1L359.43,455.23L353.21,455.23L345.91,455.54L343.52,456.67L342.83,458.58L343.24,460.98L344.79,462.9L346.61,463.85L346.19,466.24L344.93,467.21L342.69,466.1L341.14,464.48L339.31,463.69L338.19,464.97L338.05,467.37L337.36,469.76L334.96,469.92L335.39,472.16L336.1,474.23L334.83,475.34L334.41,477.42L335.81,480.13L337.64,482.37L338.62,485.24L341,486.2L342.26,489.86L344.79,491.29L348.03,494.48L350.55,495.13L352.24,496.56L355.74,498.15L357.71,501.34L360.09,504.85L363.18,505.32L365.42,503.72L368.51,503.72L372.15,505.32L374.69,507.39L376.79,510.42L380.71,514.39L382.12,514.39L384.23,513.6L386.37,513.83L388.9,512.69L390.53,513.27L391.81,514.66L392.94,516.69L394.45,517.26L395.24,518.6L396.98,520.07L397.13,521.4L402.19,521.72L405.26,523.47L406.24,523.78L408.64,522.67L411.59,523.15L413.68,525.37L414.95,527.12L416.11,527.77L416.46,528.66L414.71,530.75L413.75,533.36L414.54,534.95L417.8,535.96L418.86,537.11L419.2,539.02L418.41,540.73L416.62,542.27L414.04,542.39L413.08,542.09L411.3,542.85L409.43,544.2L408.06,543.86L406.3,542.09L404.42,542.09L403.22,542.79L402.2,545.04L402.22,546.85L403.73,549.23L404.99,549.57L407.88,548.34L408.26,547.49L410.17,548.14L413.5,548.42L415.33,547.71L416.33,548.3L418.88,548.93L419.83,548.37L421.69,548.7L421.29,550.33L422.46,552.26L424.74,552.2L425.59,551.89L426.01,549.98L426.86,548.75L427.9,548.39L430.78,550.61L433.13,551.13L434.89,551.85L437.76,551.09L439.61,551.97L440.63,554.7L442.03,555.89L443.4,556.49L446.52,556.41L448.39,556.05L450.38,554.66L452.17,554.66L454.03,555.25L455.08,556.01L457.29,556.41L458.41,555.53L460.03,556.53L464.2,557.68L465.81,558.59L467.57,558.75L468.48,559.59L469.19,561.05L469.09,562.69L467.97,565L465.5,567.48L465.59,569.88L464.61,572.29L461.15,572.66L459.01,573.34L457.04,574.89L454.77,574.53L452.27,574.98L448.48,574.35L447.23,574.73L447.71,576.23L447.37,577.26L444.73,577.26L442.63,576.15L440.11,575.27L436.22,576.27L433.18,577.58L432.76,577.05L429.56,577.13L428.66,578.11L430.2,579.82L430.63,581.49L430.52,583.22L432.76,582.74L438.21,583.48L440.77,583.16L443.19,583.76L443.79,585.3L443.26,586.96L441.47,590.32L441.11,591.94L442.62,592.94L444.34,593.33L446.38,594.2L446.79,595.19L446.42,597.17L447.4,599.31L448.76,599.42L450.59,600.45L451.68,601.68L450.44,604.59L451.7,605.07L451.54,607.45L452.43,610.03L452.54,612.44L453.23,613.14L452.86,614.11L450.54,614.64L450.26,616.12L450.82,618.97L452.22,619.51L453.66,619.47L454.46,620.59L454.26,621.81L452.4,623.93L450.39,625.37L449.41,625.38L443.53,621.29L418.78,608.78L393.83,608.22L395.19,609.32L395.76,610.42L395.16,611.82L393.17,612.98L395.23,616.2L394.71,618.21L393.32,618.74L393.12,621.56L392.08,623.34L390.76,624.34L388.24,627.09L386.66,627.53L385.31,626.39L383.54,626.65L381.92,625.99L379.78,624.44L379.17,623.55L378.95,620.04L378.3,618.97L374.39,616.22L372.58,615.39L371.79,614.38L370.16,611.38L368.13,610.86L352.67,611.5L349.14,610.89L340.53,608.27L339.24,605.41L337.64,604.51L332.65,605.1L327.63,604.4L324.98,605.17L315.96,604.46L315.5,602.7L316.86,601.44L315.88,598.07L317.51,593.49L315.48,589.63L316.23,587.04L314.92,585.79L314.91,584.29L313.41,583.96L312.91,582.98L313.34,579.47L312.44,578.47L312.9,576.67L313.7,575.49L312.15,575.01L310.2,576.47L307.64,575.71L305.99,577.01L303.89,577.01L302.71,578L300.46,577.75L299.05,578.47L292.54,579.88L289.4,579.38L284.45,581.19L282.54,581.08L274.18,576.03L272.26,572.69L263.24,567.55L252.87,558.45L247.3,555.81L246.34,556.81L243.3,555.79L240.42,553.14L237.34,548.26L225.77,547.81L220.17,557.03L215.54,556.84L209.01,551.54L205.66,550.89L193.09,539.32L189.34,539.09L185.13,537.43L167.31,526.94L167.58,522.56L164.87,520.37L163.57,516.86L161.08,514.92L155.45,514.63L154.51,515.69L155.22,518.36L148.17,519.69L149.25,516.8L148.15,517.05L146.72,515.85L149.08,514.92L148.27,510.79L138.82,500.19L138.42,494.24L135.89,489.94L122.64,487.21L118.32,484.49L118.15,482.52L118.94,480.8L121.52,479.23L122.01,476.4L125.67,474.13L131.58,468.59L132.27,467.73L132.57,466.27L134.87,463.26L136.22,461.92L137.58,461.65L142.31,457.35L144.28,453.84L144.75,450.96L145.67,450.48L145.78,447.9L147.94,448.39L149.43,448.1L149.91,449.25L148.27,451.08L148.31,451.95L150.19,453.67L151.79,453.86L156.17,455.65L159.42,457.82L163.35,462.55L168.86,466.26L171.32,467.65L174.01,469.96L179.96,474.29L186.7,479.54L189.38,482.34L192.42,483.11L195.8,487.1L197.5,487.27L200.13,487.97L201.87,489.31L200.19,491.99L200,494.28L200.22,496.18L204.41,499.96L205.48,501.61L206.75,500.4L209.16,501.05L211,502.2L214.21,503.67L214.36,504.89L216.6,506.68L219.05,506.99L219.97,507.73L222.97,506.84L223.76,505.06L222.01,502.57L222.74,500.72L224.88,500.86L226.34,503.59L227.62,504.35L227.34,505.32L225.55,506.59L226.34,508.69L229.42,509.08L230.37,510.47L231.5,510.98L232.45,510.6L233.52,509.2L234.19,507.23L235.25,506.2L237.14,506.43L238.91,505.18L242.15,504.31L244.25,504.5L247.03,506.7L249.22,505.88L250.26,505.17L252.03,505.08L254.31,505.97L256.29,505.5L258.47,506.88L260.62,505.97L263.94,505.5L265.35,506.6L266.2,508.61L267.62,509.47L270.38,509.75L272.41,511.71L274.1,513.72L275.69,513.33L277.16,514.09L277.46,510.66L278.18,509.08L280.03,507.79L280.9,505.96L279.67,505.1L278.68,505.08L276.93,502.77L276.04,500.74L274.92,499.55L274.61,498.38L273.09,496.37L272.67,494.74L272.86,492.49L273.91,492.1L274.96,490.14L274.78,488.67L272.64,487.15L271.91,485.75L272.28,484.42L271.28,483.36L271.42,482.29L273.73,481.52L273.77,479.34L274.47,478.37L276.08,477.7L277.44,474.68L278.54,472.85L278.61,470.42L279.74,467.85L281.26,467.95L282.27,468.9L283.87,468.9L287.23,467.75L289,465.36L291.7,464.83L293.47,463.2L295.65,462.24L297.93,462.73L299.02,461.29L298.85,458.7L297.68,457.26L294.73,455.82L291.02,455.47L290.14,454.63L287.51,453.23L287.37,451.98L288.04,450.22L288.74,450.03L291.62,451.7L293.47,452.46L295.65,452.75L296.99,452.38L298.48,450.06L300.19,449.55L301.18,447.18L302.04,446.77L302.08,444.94L300.71,440.37L297.73,440.04L296.41,438.44L296.52,436.63L297.5,435.22L298.82,434.36L299.6,433.13L302.55,430.94L303,430.31L302.49,428.29L303.73,426.39L303.79,425.27L305.59,423.56L306.33,422.42L307.32,422.42L308.53,424.14L310.05,424.91L311.65,423.28L314.46,425.55L316.39,425.55L317.97,426.28L318.33,427.73L319.54,430.13L321.33,430.16L322.09,429.13L324.68,428.83L326.89,427.67L329.49,428.21L332.52,427.18L335.51,428.34L337.81,427.64L339.52,428.18L341.92,428.34L344.37,429.5L344.5,430.51L347.12,431.89L348.13,431.66L350.41,432.94L352.65,433.14L353.97,433.72L355.82,433.91L358.22,435.07L359.56,436.47L360.03,438.47L361.26,439.82L363.45,439.04Z" fill="#dadada" stroke="#fff" stroke-width="0.5" id="NP-P5" data-name="Lumbinī"/>
    <path d="M731.87,681.86L731.38,683.36L728.37,685.51L726.89,685.44L725.31,684.18L723.87,684.73L724.33,686.27L727.87,687.6L729.56,688.66L730.5,690.04L731.76,688.46L736.96,687.13L743,688.38L745.24,687L745.69,685.3L746.83,683.77L749.17,683.99L751.17,684.6L755.17,686.52L757.46,686.85L758.06,688.79L762.22,692.94L764.22,693.84L766.05,693.25L766.71,696.25L765.84,696.63L764.32,698.37L763.73,699.65L764.37,700.45L765.86,700.65L766.51,699.63L767.58,699.4L767.97,700.8L769.09,701.6L766.42,704.83L766.59,705.61L768.34,706.2L768.83,706.96L768.55,708.29L769.81,709.62L770.64,711.17L772.88,712.58L777.09,712.28L779.9,711.8L781.96,712.51L784.01,710.59L785.19,710.21L788.27,709.78L789.58,710.39L790.53,712.09L792.69,710.63L793.95,710.35L795.54,709.36L797.57,710.02L798.62,709.36L799.63,709.6L801.03,711.6L801.98,711.51L803.05,710.54L805.83,708.71L807.77,706.52L808.69,703.18L809.79,702.63L810.8,703.43L809.81,704.54L811.21,706.71L812.92,707.23L814.28,706.42L815.91,706.48L816.2,708.41L817.63,710.71L819.74,711.17L820.68,711.84L819.97,712.88L820.12,716.1L819.13,717.12L817.38,718.14L816.89,720.81L817.38,722.46L817.38,727.24L816.81,728.66L815.41,729.99L814.5,731.4L811.7,732.89L811.41,734.14L811.97,735.15L810.66,735.3L810.39,738.9L806.19,739.12L806.25,742.44L802.12,743.26L799.88,745.3L791.11,742.94L788.82,747.37L787.17,747.33L785.9,745.99L783.36,745.45L782.7,744.05L774.98,741.51L772.89,738.95L768.03,737.64L763.94,731.9L759.53,731.78L754.73,728.52L747.41,726.06L747.19,724.86L740.9,723.37L741.18,721.96L737.09,721.54L735.39,722.44L730.67,722.38L727.65,725.47L724.14,724.86L723.98,722.37L720.22,722.21L719.46,723.08L717.57,723.33L717.72,721.24L710.87,718.29L708.87,716.34L704.39,715.34L702.14,716.72L698.26,716.71L696.22,717.66L696.55,719.32L695.27,722.92L693.23,722.2L692.38,723.17L690.08,722.96L687.8,726.16L686.06,726.08L685.59,727.34L683.69,728.12L683.15,727.21L684.49,725.68L684.38,723.77L682.96,722.82L680.39,723.77L678.96,723.69L677.07,720.77L673.15,719.92L669.41,717.45L669.25,715.56L667.84,713.4L668.22,707.71L669.18,705.82L668.52,704.5L669.23,698.36L668.1,695.48L662.39,691.77L658.29,690.66L657.71,688.63L656.21,688.61L654.37,690.51L652.25,691.58L651.86,690.31L650.9,690.26L650.32,692.11L646.62,693.7L645.02,695.68L642.28,695.97L641.69,697.62L639.86,698.98L638.68,698.93L636.53,700.02L635.06,699.15L631.57,699.59L630.44,700.95L626.91,702.85L625.76,703.21L624.09,704.63L622.12,705.37L618.73,703.96L613.61,703.63L611.42,702.81L607.09,702.85L604.09,696.02L605.69,693.04L605.98,688.95L596.44,688.2L593.84,688.65L593.8,690.23L591.23,690.27L590.09,691.07L587.29,690.71L586.57,687.99L588.92,686.33L583.67,685.13L582.88,684.6L582.85,683.5L582.15,682.86L579.87,681.85L580.69,679.91L580.87,677.82L577.81,676.53L570.56,675.12L565.63,672.17L565.22,670.25L562.48,668.85L561.09,670.41L558.47,671.57L556.82,669.12L554.45,671.11L540.63,664.93L541.15,661.43L544.42,657.52L543.99,656.23L544.7,655.92L545.67,649.95L544.71,649.72L544.33,648.42L545.31,647.08L545.95,641.51L540.17,629.51L539.18,627.23L523.46,624.46L522.57,623.85L524.29,621.41L526.81,620.77L528.5,618.41L529.05,616.35L530.6,613.51L532.71,611.61L535.79,611.61L537.61,612.25L540.56,612.87L542.38,614.61L545.75,615.57L548.13,615.41L551.36,613.19L553.6,613.99L556.55,613.99L559.92,614.61L561.88,616.35L564.4,617.45L566.51,619.35L569.73,620.45L574.51,623.46L581.24,624.57L584.05,623.93L586.43,625.19L587.98,625.19L589.66,624.09L593.31,624.41L594.15,627.57L595.42,629.93L597.66,632.61L601.87,636.89L604.25,638.61L608.46,639.09L611.55,638.61L613.65,640.82L616.45,641.62L620.11,642.24L624.87,643.98L628.66,644.92L630.93,646.27L633.31,647.06L636.26,648.32L638.48,649.84L642.08,650.41L642.18,651.92L643.64,652.87L645.87,653.4L647.06,652.73L652.11,652.74L655.65,653.13L658.23,652.87L663.17,649.91L665.59,647.51L668.54,647.22L671.33,647.22L674.28,648.47L676.45,649.15L678.78,650.57L681.08,649.81L683.1,650.63L683.75,652.9L685.21,654.48L686.69,653.35L688.31,653.68L693.5,655.42L694.76,656.84L695.04,659.51L696.59,661.71L697.15,663.44L698.42,664.86L698.62,666.57L700.7,668.71L706.32,669.47L710.9,669.47L714.1,670.05L715.41,671.07L720.57,672.74L723.11,674.31L728.26,678.98L729.64,679.5L731.42,680.87Z" fill="#dadada" stroke="#fff" stroke-width="0.5" id="NP-P2" data-name="Madhesh"/>
    <path d="M811.97,735.15L811.41,734.14L811.7,732.89L814.5,731.4L815.41,729.99L816.81,728.66L817.38,727.24L817.38,722.46L816.89,720.81L817.38,718.14L819.13,717.12L820.12,716.1L819.97,712.88L820.68,711.84L819.74,711.17L817.63,710.71L816.2,708.41L815.91,706.48L814.28,706.42L812.92,707.23L811.21,706.71L809.81,704.54L810.8,703.43L809.79,702.63L808.69,703.18L807.77,706.52L805.83,708.71L803.05,710.54L801.98,711.51L801.03,711.6L799.63,709.6L798.62,709.36L797.57,710.02L795.54,709.36L793.95,710.35L792.69,710.63L790.53,712.09L789.58,710.39L788.27,709.78L785.19,710.21L784.01,710.59L781.96,712.51L779.9,711.8L777.09,712.28L772.88,712.58L770.64,711.17L769.81,709.62L768.55,708.29L768.83,706.96L768.34,706.2L766.59,705.61L766.42,704.83L769.09,701.6L767.97,700.8L767.58,699.4L766.51,699.63L765.86,700.65L764.37,700.45L763.73,699.65L764.32,698.37L765.84,696.63L766.71,696.25L766.05,693.25L764.22,693.84L762.22,692.94L758.06,688.79L757.46,686.85L755.17,686.52L751.17,684.6L749.17,683.99L746.83,683.77L745.69,685.3L745.24,687L743,688.38L736.96,687.13L731.76,688.46L730.5,690.04L729.56,688.66L727.87,687.6L724.33,686.27L723.87,684.73L725.31,684.18L726.89,685.44L728.37,685.51L731.38,683.36L731.87,681.86L733.31,681.55L734.23,680.87L735.21,679.14L737.45,676.94L739.1,676.11L741.03,676.11L742.99,677.02L743.97,676.15L745.79,673.68L745.65,670.53L745.23,667.69L744.39,666.12L743.13,665.01L743.13,663.43L742.24,662.88L742.46,661.92L743.55,660.7L743.72,659.66L741.83,658.09L739.76,659.66L738.92,658.56L739,657.58L740.36,656.01L741.07,653.66L742.88,652.94L744.52,653.27L747.2,648.78L745.94,647.36L743.54,646.1L742.01,644.84L742.01,642.95L737.93,640.73L736.73,640.56L735.79,639.34L733.02,637.73L731.38,638.11L729.4,640.24L727.41,641.05L726.57,639.95L726.29,637.73L728.67,635.84L729.93,634.27L729.79,632.84L727.27,629.06L727.27,623.54L728.53,619.26L730.5,616.58L731.05,613.73L732.21,611.39L734,611.2L736.03,608.67L737.6,608.1L739.73,606.15L740.29,604.75L742.14,602.6L743.32,601.72L745.45,597.41L746.73,596.41L749.53,595.31L750.66,593.56L752.76,591.34L755.85,591.18L759.07,590.72L760.43,589.6L761.55,586.59L763.16,585.41L763.86,584.38L764.5,582.16L764.71,580.27L765.4,578.36L766.17,577.48L766.31,575.51L767.57,572.65L768.33,567.32L767.92,566.48L765.69,564.41L765.19,562.99L765.69,561.72L766.04,559.33L765.9,553.46L766.15,549.34L765.47,548.06L763.95,547.23L762.67,547.21L761.77,544.63L762,541.2L763.06,536.5L763.91,534.09L765.92,532.12L767.49,528.62L767.27,525.41L768.79,524.23L771.03,525.06L772.88,526.2L772.82,529.12L775.5,529.9L778.33,529.06L779.11,526.18L781.55,524.34L786.4,524.42L789.43,525.82L789.55,528.11L791.68,529.31L791.4,530.02L790.11,530.46L789.27,531.49L789.15,533.57L790.33,534.47L792.63,534.72L794.71,536.06L796.67,536.43L799.54,536.63L801.27,535.55L802.96,535.75L803.67,537.74L810.08,540.32L811.38,541.84L811.78,543.99L814.75,545.04L817.85,544.86L823.35,546.03L824.97,549.02L827.37,549.71L829.24,554.73L831.54,556.32L831.71,559.31L832.62,560.25L834.42,560.53L838.11,563.11L845.34,562.72L848.32,559.31L850.66,558.93L854.15,559.65L856.52,562.28L860.79,562.23L862.21,560.27L867.01,558.16L869.58,558.75L869.46,561.37L871.61,562.73L875.09,559.93L877.61,559.75L882.27,559.81L883.73,556.83L885.38,556.73L887.21,558.16L888.11,562.53L889.27,562.75L890.75,564.19L893.84,561.27L896.93,560.65L897.71,562.41L897.32,564.57L899.56,563.43L904.12,564.95L905.19,561.4L907.24,560.29L908.33,557.65L909.93,557.13L909.67,554.6L911.14,552.06L913.48,550.7L914.84,548.98L916.52,545.84L919.45,545.78L919.89,549.18L920.97,550.04L923.65,550.1L926.11,549.37L928.63,549.74L929.38,550.8L930.99,550.52L932.29,553.02L934.42,553.78L938.35,551.37L941.61,551.44L943.41,553.78L944.91,552.46L946.83,552.64L947.34,555.75L949.39,556.04L950.47,554.66L952.26,554.16L957.31,556.32L960,558.32L959.95,560.04L958.22,562.79L959.68,566.71L957.57,571.88L954.86,574.42L954.07,582.62L951.07,585.54L949.38,590.81L946.11,593.53L946.12,596.86L944.19,598.53L943.74,600.03L944.54,600.91L941.86,605.95L942.25,608.8L944.64,612.63L944.64,614.93L942.3,616.91L941.51,620.64L941.66,622.69L943.54,624.56L943.98,626.59L940.46,634.22L940.24,638.57L938.33,642.31L938.37,649.8L935.32,656.6L939.31,660.16L939.68,664.05L941.76,666.33L944.51,667.27L946.32,666.69L947.34,670.47L950.04,673L952.28,673.28L950.93,678.35L953.38,680.97L953.4,686.04L957.21,689.78L956.31,692.78L958.2,698.23L958.43,708.66L956.07,713.57L955.26,719.55L952.98,721.3L951.99,723.93L952.06,727.68L950.01,728.3L949.93,729.65L949,730.16L949.67,732.32L948.2,736.3L949.27,742L947.85,743.55L948.64,744.54L946.71,747.67L940.38,753.61L940.23,755.39L937.65,756.54L936.37,755.52L935.56,754.21L935.65,751.53L932.6,750.9L928.12,748.17L926.72,746.25L927.8,744.56L924.71,744.18L925.97,742.9L923.61,739.26L923.12,740.6L919.93,742.31L920.49,743.76L919.13,744.6L918.8,745.92L916.32,745.3L916.49,744.05L914.72,742.68L911.56,741.67L910.12,743.83L910.48,746.07L908.9,749.42L907.41,749.57L906.94,748.26L905.79,748.13L905.24,749.61L903.93,749.03L902.85,747L899.9,745.91L898.57,745.92L898.51,748.46L895.31,749.86L895.48,751.54L890.91,751.81L890.35,753.1L888.09,752.91L887.67,751.41L883.97,749.92L883.3,748.15L876.7,745.74L873.05,745.37L869.03,747.82L864.31,748.12L862.12,749.61L860.42,752.49L860.71,755.78L860.38,757.02L858.7,757.39L855.44,754.29L854.21,754.99L852.72,753.95L849.91,754.04L849.34,749.2L845.65,748.76L844.17,750L843.55,748.86L840.57,748.73L840.95,749.96L837.01,749.82L829.34,743.71L826.94,725.98L823.8,725.89L823.84,727.76L821.81,732.58L815.8,734.83Z" fill="#dadada" stroke="#fff" stroke-width="0.5" id="NP-P1" data-name="Koshī"/>
    <path d="M118.32,484.49L115.62,482.6L114.83,484.19L113.09,482.82L115.14,480.22L114,479.28L112.41,479.75L112.08,477.78L110.7,477.53L107.17,479.58L105.55,478.09L103.29,477.38L103.65,475.34L102.06,476.92L100.11,476.63L98.94,476.04L98.57,473.74L99.78,471.62L97.74,470.19L94.49,470.15L94.64,471.85L91.81,471.11L89.71,468.67L85.34,467.5L85.47,465.36L83.59,463.89L83.47,462.04L80.64,460.99L79.25,461.83L75.37,460.67L74.45,459.22L74.89,457.13L72.91,456.82L72.82,454.8L71.59,453.74L71.37,452.01L66.99,452.42L64.16,450.79L62.57,451.18L62.78,449.9L61.41,449.13L62.2,446.7L57.37,445.25L52.48,448.51L53.92,460.08L55.39,461.57L54.17,463.06L50.26,459.53L48.17,458.95L48.4,457.17L47.44,454.64L44.21,452.33L37.66,453.3L36.06,452.63L35.19,450.42L31.72,448.39L30.59,444.37L25.49,442.61L23.43,440.58L24.43,438.05L23.42,436.72L17.35,435.85L8.23,427.47L2.19,427.28L0.79,426.51L0,424.36L0.34,414.46L4.58,406.02L6.76,405.5L7.26,403.18L9.07,402.66L7.85,401.6L7.82,398.85L9.4,395.95L8.51,393.74L10.4,389.39L14.36,385.69L18.32,387.43L20.78,387.49L22.24,385.48L24.7,384.03L23.5,381.29L23.56,378.24L21.96,376.2L22.39,373.94L23.28,374.02L23.64,375.09L25.86,375.52L26.83,377.1L28.06,376.74L27.51,371.79L28.29,370.97L28.72,365.32L30.07,363.07L29.74,359.96L27.4,359.4L27.16,357.56L26.06,357.1L25.84,355.08L24.87,354.23L25.54,353.04L25.13,350.29L21.74,348.4L21.51,343.28L25.46,341.72L26.34,343.03L28.1,342.67L26.81,340.09L28.08,337.86L29.63,338.56L29.87,336.91L34.05,333.7L34.55,331.69L33.45,330.88L33.81,329.11L37.85,326.39L39.24,326.37L41.14,322.69L41.08,320.31L42.32,316.87L38.89,313.07L37.16,306.96L36.01,305.43L36.42,302.18L37.98,302.24L39.75,300.7L40.67,296.64L43.98,294.54L45.86,295.56L47.78,295.09L50.86,295.77L52.21,292.48L58.43,286.79L60.99,284.69L61.96,282.6L61.4,279.52L61.96,277.91L63.99,274L66.45,272.98L68.76,273.14L70.03,274.34L71.72,274.67L73.61,274.34L75.64,273.05L76.14,271.18L77.47,270.45L78.31,269.23L78.53,267.97L81.82,267.7L82.52,266.48L83.08,263.24L83.99,261.87L85.75,260.97L88.27,257.41L89.46,256.12L89.66,254.74L91.47,254.28L92.41,254.65L93.6,253.51L93.07,251.84L95.38,250.28L97.39,251.17L98.09,249.79L97.53,247.11L96.76,244.76L95.1,243.86L94.1,242.77L92.69,240.49L92.55,239.44L91.22,237.57L89.46,236.19L87.99,234.09L86.44,233.02L84.35,230.27L83.57,228.07L83.35,226.2L81.19,224.82L78.66,222.3L76.69,221.73L75.02,221.73L73.12,221.17L71.79,220.1L71.15,215.55L70.03,213.84L69.26,211.97L67.86,209.78L67.93,208.07L64.77,206.12L62.53,206.69L60.42,208.4L58.25,210.51L56.71,210.27L55.87,209.21L56.35,207.58L57.13,206.53L59.94,205.06L60.99,203.76L62.39,202.86L65.2,202.61L66.32,203.6L69.61,204.98L72.14,206.61L74.03,208.96L75.64,210.19L78.17,210.19L79.15,210.92L83.08,215.22L85.32,217.1L86.87,220.27L88.34,222.14L91.77,223.85L96.48,224.5L98.02,226.05L99.84,226.05L100.97,226.69L101.53,227.82L103,227.99L103.77,228.8L103.77,231.48L105.38,231.15L106.09,230.51L109.04,230.43L112.61,231.32L115.27,233.43L115.84,234.65L115.72,236.25L116.1,237.95L117.43,238.92L117.27,239.89L115.99,241.05L117.31,241.84L117.59,243.05L118.58,244.19L120.05,246.78L121.45,247.35L121.87,249.3L121.8,251.65L122.08,253.19L124.12,255.3L124.32,256.51L123.48,259.76L122.79,260.82L125.17,262.92L126.15,263.41L126.71,265.03L127.55,265.83L131.62,266.4L133.37,266.16L134.71,265.19L136.39,265.11L137.44,266.16L139.33,267.22L140.87,266.32L141.16,265.11L140.53,263.24L143.9,262.41L144.6,261.79L146.2,262.92L149.99,263.96L153.7,266.44L158.31,266.13L159.8,264.93L161.06,265.54L162.72,267.17L164.65,267.25L166.76,269.63L167.66,272.27L167.38,273.52L165.7,274.58L165.98,277.62L166.54,279.24L166.16,281.06L166.44,282.19L168.02,283.73L169.76,283.81L171.59,283.48L172.64,282.19L172.85,279.28L175.11,277.86L176.57,278.46L178.32,278.26L179.62,277.05L180.99,276.8L182.43,278.1L183.65,277.58L184.13,276.72L185.92,276.8L188.78,275.18L189.77,276.12L191.07,276.48L193.08,275.31L194.71,276.12L196,278.72L196.33,280.65L204.43,280.41L206.44,281.58L205.42,289.64L204.23,289.78L205.44,292.12L204.77,295.99L199.45,296.49L198.65,298.3L198.28,300.91L198.36,302.9L197.39,305.57L195.79,306.96L195.27,310.74L195.27,318L198.63,321.96L202.14,321.69L203.99,321.99L204.8,323.1L204.84,324.16L206.14,326.19L205.93,328.43L206.06,330.79L205.68,332.44L203.62,334.81L203.32,335.77L206.15,338.42L207.26,342.78L207.11,344.52L205.98,348.49L206.05,350.72L205.15,352L202.71,352.13L201.79,352.94L200.63,355.2L200.63,356.8L200,358.77L199.11,359.5L196.88,359.6L191.17,361.48L188.98,361.21L188.46,357.87L185.05,354.09L180.54,354.21L170.46,363.05L167.42,366.85L168.28,369.06L170.22,370.75L169.42,380.01L170.99,383.19L174.22,384.23L175.06,385.39L177.77,387.47L177.97,388.72L173.02,391.74L169.95,392.85L168.07,393.14L167.03,394.1L166.19,395.57L164.73,395.99L164.98,397.59L161.27,402.25L160.21,404.34L162.31,408.89L163.33,409.89L164.36,411.87L166.89,414.57L168.55,417.35L170.45,419L174.03,423.14L174.22,424.33L175.85,427.94L176.92,429.15L177.65,431.09L179.55,432.75L179.85,433.59L179.95,436.48L179.18,437.4L177.6,437.76L175.46,436L174.62,434.92L172.9,433.82L172.38,430.67L170.73,429.43L170.62,426.43L169.88,425.39L167.41,424.77L166.46,422.92L166.34,419.62L165.95,418.46L164.49,417.43L163.47,417.66L162.13,416.14L160,415.62L158.67,417.22L156.59,418.94L154.8,419.54L153.27,419.47L151.86,418.46L151.57,416.3L150.67,415.58L147.24,414.62L144.75,415.62L143.87,416.65L142.54,416.82L142.09,415.94L140.96,415.45L138.87,416.96L136.1,416.73L130.53,413.42L129.57,412.09L123.96,408.49L122.28,408.29L120.73,407.68L117.76,407.11L116.43,407.36L113.82,410.38L111.06,410.48L109.83,411.13L109.17,412.09L109.76,413.22L112.77,413.81L114.18,414.7L115.97,418.62L118.39,421.66L120.11,421.5L120.73,422.43L122.67,422.62L123.82,424.75L125.01,424.83L128.02,421.34L129.26,422.55L128.53,423.39L130.11,424.71L130.34,427.08L135.37,428.76L136.03,427.43L134.21,426.27L134.84,424.07L135.82,424.42L136.42,425.47L137.47,425.94L138.66,425.02L139.52,426.64L139.22,428.33L139.99,429.26L139.85,430.78L138.17,431.33L138.83,433.01L140.87,434.45L141.57,436.41L142.58,437.41L143.15,438.7L142.21,440.34L143.33,441.26L143.54,442.33L142.9,444.17L144.77,445.29L145.78,447.9L145.67,450.48L144.75,450.96L144.28,453.84L142.31,457.35L137.58,461.65L136.22,461.92L134.87,463.26L132.57,466.27L132.27,467.73L131.58,468.59L125.67,474.13L122.01,476.4L121.52,479.23L118.94,480.8L118.15,482.52Z" fill="#dadada" stroke="#fff" stroke-width="0.5" id="NP-P7" data-name="Sudūrpashchim"/>
    <path d="M425.63,380.4L426.67,381.49L426.64,384.21L427.69,384.83L428.18,386.35L427.29,388.41L425.76,388.2L424.83,389.78L422.14,390.32L420.63,391.43L420.88,392.87L422.19,393.98L422.56,395.48L421.97,396.68L420.82,396.61L420.79,406.83L420.37,407.75L418.57,407.07L417.34,407.56L416.75,408.61L416.77,410.08L407.28,421.91L405.3,427.18L405.11,433.05L405.24,434.57L403.27,434.97L400.36,436.57L396.57,436.7L393.93,437.49L393.12,438.01L392.33,439.98L391.28,440.89L389.66,440.93L387,440.49L383.21,441.46L381.14,442.33L379.25,441.78L377.6,441.82L375.22,440.1L374.14,440.3L373.11,441.21L369.96,439.7L366.09,438.73L365.01,439.84L363.45,439.04L361.26,439.82L360.03,438.47L359.56,436.47L358.22,435.07L355.82,433.91L353.97,433.72L352.65,433.14L350.41,432.94L348.13,431.66L347.12,431.89L344.5,430.51L344.37,429.5L341.92,428.34L339.52,428.18L337.81,427.64L335.51,428.34L332.52,427.18L329.49,428.21L326.89,427.67L324.68,428.83L322.09,429.13L321.33,430.16L319.54,430.13L318.33,427.73L317.97,426.28L316.39,425.55L314.46,425.55L311.65,423.28L310.05,424.91L308.53,424.14L307.32,422.42L306.33,422.42L305.59,423.56L303.79,425.27L303.73,426.39L302.49,428.29L303,430.31L302.55,430.94L299.6,433.13L298.82,434.36L297.5,435.22L296.52,436.63L296.41,438.44L297.73,440.04L300.71,440.37L302.08,444.94L302.04,446.77L301.18,447.18L300.19,449.55L298.48,450.06L296.99,452.38L295.65,452.75L293.47,452.46L291.62,451.7L288.74,450.03L288.04,450.22L287.37,451.98L287.51,453.23L290.14,454.63L291.02,455.47L294.73,455.82L297.68,457.26L298.85,458.7L299.02,461.29L297.93,462.73L295.65,462.24L293.47,463.2L291.7,464.83L289,465.36L287.23,467.75L283.87,468.9L282.27,468.9L281.26,467.95L279.74,467.85L278.61,470.42L278.54,472.85L277.44,474.68L276.08,477.7L274.47,478.37L273.77,479.34L273.73,481.52L271.42,482.29L271.28,483.36L272.28,484.42L271.91,485.75L272.64,487.15L274.78,488.67L274.96,490.14L273.91,492.1L272.86,492.49L272.67,494.74L273.09,496.37L274.61,498.38L274.92,499.55L276.04,500.74L276.93,502.77L278.68,505.08L279.67,505.1L280.9,505.96L280.03,507.79L278.18,509.08L277.46,510.66L277.16,514.09L275.69,513.33L274.1,513.72L272.41,511.71L270.38,509.75L267.62,509.47L266.2,508.61L265.35,506.6L263.94,505.5L260.62,505.97L258.47,506.88L256.29,505.5L254.31,505.97L252.03,505.08L250.26,505.17L249.22,505.88L247.03,506.7L244.25,504.5L242.15,504.31L238.91,505.18L237.14,506.43L235.25,506.2L234.19,507.23L233.52,509.2L232.45,510.6L231.5,510.98L230.37,510.47L229.42,509.08L226.34,508.69L225.55,506.59L227.34,505.32L227.62,504.35L226.34,503.59L224.88,500.86L222.74,500.72L222.01,502.57L223.76,505.06L222.97,506.84L219.97,507.73L219.05,506.99L216.6,506.68L214.36,504.89L214.21,503.67L211,502.2L209.16,501.05L206.75,500.4L205.48,501.61L204.41,499.96L200.22,496.18L200,494.28L200.19,491.99L201.87,489.31L200.13,487.97L197.5,487.27L195.8,487.1L192.42,483.11L189.38,482.34L186.7,479.54L179.96,474.29L174.01,469.96L171.32,467.65L168.86,466.26L163.35,462.55L159.42,457.82L156.17,455.65L151.79,453.86L150.19,453.67L148.31,451.95L148.27,451.08L149.91,449.25L149.43,448.1L147.94,448.39L145.78,447.9L144.77,445.29L142.9,444.17L143.54,442.33L143.33,441.26L142.21,440.34L143.15,438.7L142.58,437.41L141.57,436.41L140.87,434.45L138.83,433.01L138.17,431.33L139.85,430.78L139.99,429.26L139.22,428.33L139.52,426.64L138.66,425.02L137.47,425.94L136.42,425.47L135.82,424.42L134.84,424.07L134.21,426.27L136.03,427.43L135.37,428.76L130.34,427.08L130.11,424.71L128.53,423.39L129.26,422.55L128.02,421.34L125.01,424.83L123.82,424.75L122.67,422.62L120.73,422.43L120.11,421.5L118.39,421.66L115.97,418.62L114.18,414.7L112.77,413.81L109.76,413.22L109.17,412.09L109.83,411.13L111.06,410.48L113.82,410.38L116.43,407.36L117.76,407.11L120.73,407.68L122.28,408.29L123.96,408.49L129.57,412.09L130.53,413.42L136.1,416.73L138.87,416.96L140.96,415.45L142.09,415.94L142.54,416.82L143.87,416.65L144.75,415.62L147.24,414.62L150.67,415.58L151.57,416.3L151.86,418.46L153.27,419.47L154.8,419.54L156.59,418.94L158.67,417.22L160,415.62L162.13,416.14L163.47,417.66L164.49,417.43L165.95,418.46L166.34,419.62L166.46,422.92L167.41,424.77L169.88,425.39L170.62,426.43L170.73,429.43L172.38,430.67L172.9,433.82L174.62,434.92L175.46,436L177.6,437.76L179.18,437.4L179.95,436.48L179.85,433.59L179.55,432.75L177.65,431.09L176.92,429.15L175.85,427.94L174.22,424.33L174.03,423.14L170.45,419L168.55,417.35L166.89,414.57L164.36,411.87L163.33,409.89L162.31,408.89L160.21,404.34L161.27,402.25L164.98,397.59L164.73,395.99L166.19,395.57L167.03,394.1L168.07,393.14L169.95,392.85L173.02,391.74L177.97,388.72L177.77,387.47L175.06,385.39L174.22,384.23L170.99,383.19L169.42,380.01L170.22,370.75L168.28,369.06L167.42,366.85L170.46,363.05L180.54,354.21L185.05,354.09L188.46,357.87L188.98,361.21L191.17,361.48L196.88,359.6L199.11,359.5L200,358.77L200.63,356.8L200.63,355.2L201.79,352.94L202.71,352.13L205.15,352L206.05,350.72L205.98,348.49L207.11,344.52L207.26,342.78L206.15,338.42L203.32,335.77L203.62,334.81L205.68,332.44L206.06,330.79L205.93,328.43L206.14,326.19L204.84,324.16L204.8,323.1L203.99,321.99L202.14,321.69L198.63,321.96L195.27,318L195.27,310.74L195.79,306.96L197.39,305.57L198.36,302.9L198.28,300.91L198.65,298.3L199.45,296.49L204.77,295.99L205.44,292.12L204.23,289.78L205.42,289.64L206.44,281.58L204.43,280.41L196.33,280.65L196,278.72L194.71,276.12L193.08,275.31L191.07,276.48L189.77,276.12L188.78,275.18L185.92,276.8L184.13,276.72L183.65,277.58L182.43,278.1L180.99,276.8L179.62,277.05L178.32,278.26L176.57,278.46L175.11,277.86L172.85,279.28L172.64,282.19L171.59,283.48L169.76,283.81L168.02,283.73L166.44,282.19L166.16,281.06L166.54,279.24L165.98,277.62L165.7,274.58L167.38,273.52L167.66,272.27L166.76,269.63L164.65,267.25L162.72,267.17L161.06,265.54L159.8,264.93L158.31,266.13L153.7,266.44L149.99,263.96L146.2,262.92L144.6,261.79L144.6,260.25L146.13,259.03L146,256.92L146.2,254L145.65,251.17L144.67,250.11L141.81,248.97L141.76,247.02L142.98,246.76L145.79,246.76L147.31,246.06L148.54,246.06L149.33,247.02L151.52,247.35L153.54,244.17L156,241.7L157.13,239.96L158.36,239.04L158.64,237.75L157.85,236.5L158.76,232.81L160.15,232.42L161.39,230.28L160.55,229.23L159.43,228.97L159.48,227.41L161.51,226.25L161.45,225.46L159.48,224.04L159.15,222.6L159.82,221.43L159.09,217.53L160.11,216.69L161.84,216.29L162.06,214.8L160.11,213.3L159.6,211.81L160.21,210.11L163.14,210.11L165.05,210.89L168.24,212.65L168.86,214.28L170.71,215.58L172.68,215.77L176.1,216.69L177.33,215.65L177.27,212.2L177.95,209.85L178.74,208.62L179.96,208.69L182.72,210.7L184.01,210.83L185.19,209.99L185.19,207.18L186.25,206.33L187.43,206.33L192.2,209.14L194.34,209.26L196.92,211.29L198.43,211.61L199.61,213.17L201.4,214.09L203.59,214.47L207.58,214.66L210.49,216.24L212.34,216.24L214.09,215.84L215.72,216.75L216.49,217.92L218.07,219.02L220.93,219.61L223.12,219.49L224.13,218.57L225.99,219.54L226.37,221.17L228.9,223.45L230.08,223.45L231.26,222.6L231.7,220.98L232.6,220.46L233.78,221.05L236.7,221.17L238.6,219.09L239.62,218.64L243.32,219.8L243.94,222.02L244.68,223.25L244.99,226.11L244.26,227.34L243.76,229.69L244.32,230.92L243.93,232.35L243.02,232.94L242.25,234.83L243.14,236.97L244.2,237.09L245.78,238.01L246.34,239.49L247.52,240.86L249.04,241.77L250.44,241.51L251.79,242.1L252.23,245.28L254.14,246.9L253.64,249.49L251.89,250.34L251.62,251.25L252.07,253.91L250.16,257.22L250.67,258.19L252.12,258.52L253.7,258.31L255.04,258.71L257,258.64L258.62,257.74L259.64,257.74L260.59,259.03L263.62,260.45L264.64,262.02L266.43,262.79L267.89,261.81L269.97,261.95L270.7,263.5L273.51,265.38L274.91,265.52L276.36,264.8L277.66,264.7L278.21,266.03L280.96,269.02L282.82,270.38L285.45,271.47L287.14,273.74L289.33,275.69L290.36,275.29L291.43,273.93L291.98,272.52L293.06,272.19L294.46,272.57L296.03,273.88L297.25,277.56L299.84,280.15L301.3,282.8L303.21,284.42L305.34,284.49L306.91,285.4L306.97,286.95L303.54,289.02L303.49,290.25L304.49,290.7L306.46,290.63L309.82,289.02L311.4,287.98L312.63,288.05L316.17,291.29L316.51,292.7L316.39,294.45L315.33,295.81L313.03,297.17L312.3,297.95L311.69,299.63L311.85,300.85L313.26,300.6L314.32,299.75L316.06,299.63L319.54,300.73L321.11,305.19L323.91,306.8L326.89,306.61L327.33,307.44L326.38,309.19L327.17,310.36L329.36,310.55L330.65,311.25L332.66,311.19L334.52,310.1L335.25,309.19L336.83,308.61L340.53,308.87L342.38,310.1L342.6,311.91L342.04,312.94L343.56,314.67L344.74,314.04L348.32,313.78L349.44,313.26L351.29,316.03L352.7,316.43L354.05,318.75L356.18,319.46L356.74,321.78L358.15,322.37L360.16,321.27L361.46,321.13L362.36,319.72L363.82,320.75L364.76,320.03L366.39,320.24L367.46,320.94L367.07,322.56L367.57,323.66L368.58,324.1L370.1,323.84L370.6,322.11L372.44,322.11L374.01,323L373.89,324.89L376.12,326.06L379.05,326.37L381.3,327.78L381.75,328.82L380.51,329.53L378.38,329.78L378.38,331.14L379.67,333.46L379.89,335.72L380.96,336.94L384.54,336.17L385.93,336.64L388.98,337.07L389.26,339.2L388.44,340.49L388.37,341.65L389.49,342.14L392.19,346.26L392.64,347.47L394.09,347.29L397.58,347.87L398.58,349.86L398.47,352.44L397.29,353.8L397.59,356.08L400.43,358.3L400.55,360.94L399.65,362.07L400.04,363.25L401.22,364.67L402.95,368.01L405.43,366.98L406.27,367.75L406.49,369.5L408.85,370.2L408.78,371.43L409.86,372.27L408.88,374.62L410.24,375.66L411.15,377.66L414.24,377.08L415.58,377.47L415.32,378.93L416.43,380.94L418.51,381.26L419.51,380.17L420.91,380.75L422.15,383.45L423.39,383.45Z" fill="#dadada" stroke="#fff" stroke-width="0.5" id="NP-P6" data-name="Karṇālī"/>
    <path d="M596.9,493.71L593.25,493.41L590.81,494.66L588.87,496.09L588.28,498.38L587.06,501.97L586.68,504.11L584.2,505.65L583.65,506.84L581.93,507.7L580.45,509.89L579.32,511.04L579.36,512.14L580.66,513.17L581.04,514.39L579.83,515.1L578.9,517.53L578.55,519.69L578.68,522.31L578.31,522.83L576.66,523.16L574.63,524.06L574.26,525.37L573.47,525.98L571.66,526.17L570.32,524.94L566.85,523.66L565.28,525.06L563.93,527.09L563.14,530.53L561.01,537.02L560.78,539.94L558.1,542.23L554.17,545.27L552.03,548.33L551.24,549.98L551.69,553.28L552.6,555.31L554.36,558.04L556.27,560.25L556.72,562.16L556.33,563.56L555.25,564.51L554.83,566.11L552.38,566.92L549.53,565.01L545.83,563.81L544.17,562.85L543.84,561.47L540.44,556.64L539.16,555.49L535.22,555.68L531.97,558.6L532.21,560.15L530.72,561.85L527.69,562.61L525.77,564.13L522.74,563.88L521.33,563.47L520.36,563.79L518.82,562.44L517.65,562.77L516.55,563.91L515.79,566.29L517.98,568.43L521.18,569.33L521.55,570.42L521.18,571.85L519.5,570.68L519.03,571.52L517.52,572.33L516.51,574.47L516.8,576.99L516.51,578.75L514.57,578.94L512.89,579.75L511.38,581.32L510.23,581.89L509.15,581.32L508.46,579.9L506.66,578.9L505.23,579.14L503.97,579.99L503.12,582.08L498.62,583.84L495.88,585.21L491.08,586.87L485.74,590.72L483.05,593.01L478.67,597.52L477.03,598.51L474.21,597.66L473.59,598.22L471.93,597.94L470.93,598.33L471.1,599.42L470.64,600.55L469.62,601.17L468.44,601.12L466.43,599.6L464.28,599.75L461.76,598.37L460.87,598.61L459.4,599.88L457.93,599.18L456.75,599.79L456.32,600.79L456.32,602.45L459.34,603.55L459.81,602.4L461.58,602.54L461.88,603.63L461.12,605.15L459.73,606.05L459.27,607.67L459.22,609.49L458.24,612.22L456.89,612.21L455.86,613.23L453.23,613.14L452.54,612.44L452.43,610.03L451.54,607.45L451.7,605.07L450.44,604.59L451.68,601.68L450.59,600.45L448.76,599.42L447.4,599.31L446.42,597.17L446.79,595.19L446.38,594.2L444.34,593.33L442.62,592.94L441.11,591.94L441.47,590.32L443.26,586.96L443.79,585.3L443.19,583.76L440.77,583.16L438.21,583.48L432.76,582.74L430.52,583.22L430.63,581.49L430.2,579.82L428.66,578.11L429.56,577.13L432.76,577.05L433.18,577.58L436.22,576.27L440.11,575.27L442.63,576.15L444.73,577.26L447.37,577.26L447.71,576.23L447.23,574.73L448.48,574.35L452.27,574.98L454.77,574.53L457.04,574.89L459.01,573.34L461.15,572.66L464.61,572.29L465.59,569.88L465.5,567.48L467.97,565L469.09,562.69L469.19,561.05L468.48,559.59L467.57,558.75L465.81,558.59L464.2,557.68L460.03,556.53L458.41,555.53L457.29,556.41L455.08,556.01L454.03,555.25L452.17,554.66L450.38,554.66L448.39,556.05L446.52,556.41L443.4,556.49L442.03,555.89L440.63,554.7L439.61,551.97L437.76,551.09L434.89,551.85L433.13,551.13L430.78,550.61L427.9,548.39L426.86,548.75L426.01,549.98L425.59,551.89L424.74,552.2L422.46,552.26L421.29,550.33L421.69,548.7L419.83,548.37L418.88,548.93L416.33,548.3L415.33,547.71L413.5,548.42L410.17,548.14L408.26,547.49L407.88,548.34L404.99,549.57L403.73,549.23L402.22,546.85L402.2,545.04L403.22,542.79L404.42,542.09L406.3,542.09L408.06,543.86L409.43,544.2L411.3,542.85L413.08,542.09L414.04,542.39L416.62,542.27L418.41,540.73L419.2,539.02L418.86,537.11L417.8,535.96L414.54,534.95L413.75,533.36L414.71,530.75L416.46,528.66L416.11,527.77L414.95,527.12L413.68,525.37L411.59,523.15L408.64,522.67L406.24,523.78L405.26,523.47L402.19,521.72L397.13,521.4L396.98,520.07L395.24,518.6L394.45,517.26L392.94,516.69L391.81,514.66L390.53,513.27L388.9,512.69L386.37,513.83L384.23,513.6L382.12,514.39L380.71,514.39L376.79,510.42L374.69,507.39L372.15,505.32L368.51,503.72L365.42,503.72L363.18,505.32L360.09,504.85L357.71,501.34L355.74,498.15L352.24,496.56L350.55,495.13L348.03,494.48L344.79,491.29L342.26,489.86L341,486.2L338.62,485.24L337.64,482.37L335.81,480.13L334.41,477.42L334.83,475.34L336.1,474.23L335.39,472.16L334.96,469.92L337.36,469.76L338.05,467.37L338.19,464.97L339.31,463.69L341.14,464.48L342.69,466.1L344.93,467.21L346.19,466.24L346.61,463.85L344.79,462.9L343.24,460.98L342.83,458.58L343.52,456.67L345.91,455.54L353.21,455.23L359.43,455.23L362.24,454.1L363.09,449.95L364.9,449.15L365.33,446.75L366.45,445.64L365.33,441.63L365.01,439.84L366.09,438.73L369.96,439.7L373.11,441.21L374.14,440.3L375.22,440.1L377.6,441.82L379.25,441.78L381.14,442.33L383.21,441.46L387,440.49L389.66,440.93L391.28,440.89L392.33,439.98L393.12,438.01L393.93,437.49L396.57,436.7L400.36,436.57L403.27,434.97L405.24,434.57L405.11,433.05L405.3,427.18L407.28,421.91L416.77,410.08L416.75,408.61L417.34,407.56L418.57,407.07L420.37,407.75L420.79,406.83L420.82,396.61L421.97,396.68L422.56,395.48L422.19,393.98L420.88,392.87L420.63,391.43L422.14,390.32L424.83,389.78L425.76,388.2L427.29,388.41L428.18,386.35L427.69,384.83L426.64,384.21L426.67,381.49L425.63,380.4L425.42,378.64L426.1,376.81L427.82,376.63L429.84,374.9L431.55,372.05L438.36,372.2L441.96,370.85L441.8,366.98L443.34,365.64L443.75,363.25L445.32,362.99L445.99,364.16L448.22,364.75L448.92,362.74L450.93,362.29L454.45,361.06L456.3,360.87L459.49,361.71L461.46,360.17L463.37,360.29L465.73,361.26L466.46,362.55L465.57,364.45L468.81,365.77L470.55,364.35L471.73,364.28L474.54,366.28L475.6,366.21L476.78,364.93L479.3,365.95L480.88,367.05L480.64,368.67L479.48,369.78L479.81,371.36L481.69,372.14L489.19,371.87L490.2,373.48L489.8,375.67L488.57,377.02L486.38,377.08L485.44,379.26L486.32,386.85L489.07,388.54L489.49,390.62L488.5,393.03L487.95,396.73L489.24,398.03L492.71,397.69L495.08,400.08L494.82,403.46L493.97,408.76L492.71,411.48L492.02,417.02L493.01,419.32L494.57,419.76L496.08,418.88L497.66,418.88L498.61,420.34L500.58,422.2L503.44,423.01L504.69,423.93L505.32,422.74L506.54,422.53L507.47,423.51L514.01,424.25L514.21,425.72L513.24,426.62L513.62,428.29L516.15,428.07L516.91,429.9L516.74,431.76L518.44,432.9L518.11,435.9L520.8,438.24L522.2,439.08L523.83,441L524.9,439.33L526.58,438.89L528.65,439.91L531.8,438.89L533.04,440.89L537.7,441.32L539.24,440.1L542.07,442.47L545.04,448.03L547.08,448.08L548.46,450.61L548.8,452.45L548.07,453.47L548.01,454.56L550.37,454.56L551.55,456.72L556.88,457.37L566.57,462.27L570.12,461.21L575.9,459.77L578.04,460.91L581.12,460.95L582.47,460.17L582.19,458.62L582.36,457.05L586.51,451.99L588.75,450.27L590.44,448.54L593.69,449.12L597.01,447.2L598.98,447.68L600.26,450.6L602.79,453.02L604.8,452.71L605.82,453.53L605.59,454.87L606.61,455.13L606.77,456.21L606.1,458.46L604.35,458.97L604.52,460.31L606.43,465.93L606.21,467.91L604.07,468.99L601.84,473.53L600.43,474.8L597.41,474.63L595.99,478.92L597.56,480.58L597.01,482.62L598.74,485.75L598.64,488.24Z" fill="#dadada" stroke="#fff" stroke-width="0.5" id="NP-P4" data-name="Gaṇḍakī"/>
    <path d="M761.77,544.63L762.67,547.21L763.95,547.23L765.47,548.06L766.15,549.34L765.9,553.46L766.04,559.33L765.69,561.72L765.19,562.99L765.69,564.41L767.92,566.48L768.33,567.32L767.57,572.65L766.31,575.51L766.17,577.48L765.4,578.36L764.71,580.27L764.5,582.16L763.86,584.38L763.16,585.41L761.55,586.59L760.43,589.6L759.07,590.72L755.85,591.18L752.76,591.34L750.66,593.56L749.53,595.31L746.73,596.41L745.45,597.41L743.32,601.72L742.14,602.6L740.29,604.75L739.73,606.15L737.6,608.1L736.03,608.67L734,611.2L732.21,611.39L731.05,613.73L730.5,616.58L728.53,619.26L727.27,623.54L727.27,629.06L729.79,632.84L729.93,634.27L728.67,635.84L726.29,637.73L726.57,639.95L727.41,641.05L729.4,640.24L731.38,638.11L733.02,637.73L735.79,639.34L736.73,640.56L737.93,640.73L742.01,642.95L742.01,644.84L743.54,646.1L745.94,647.36L747.2,648.78L744.52,653.27L742.88,652.94L741.07,653.66L740.36,656.01L739,657.58L738.92,658.56L739.76,659.66L741.83,658.09L743.72,659.66L743.55,660.7L742.46,661.92L742.24,662.88L743.13,663.43L743.13,665.01L744.39,666.12L745.23,667.69L745.65,670.53L745.79,673.68L743.97,676.15L742.99,677.02L741.03,676.11L739.1,676.11L737.45,676.94L735.21,679.14L734.23,680.87L733.31,681.55L731.87,681.86L731.42,680.87L729.64,679.5L728.26,678.98L723.11,674.31L720.57,672.74L715.41,671.07L714.1,670.05L710.9,669.47L706.32,669.47L700.7,668.71L698.62,666.57L698.42,664.86L697.15,663.44L696.59,661.71L695.04,659.51L694.76,656.84L693.5,655.42L688.31,653.68L686.69,653.35L685.21,654.48L683.75,652.9L683.1,650.63L681.08,649.81L678.78,650.57L676.45,649.15L674.28,648.47L671.33,647.22L668.54,647.22L665.59,647.51L663.17,649.91L658.23,652.87L655.65,653.13L652.11,652.74L647.06,652.73L645.87,653.4L643.64,652.87L642.18,651.92L642.08,650.41L638.48,649.84L636.26,648.32L633.31,647.06L630.93,646.27L628.66,644.92L624.87,643.98L620.11,642.24L616.45,641.62L613.65,640.82L611.55,638.61L608.46,639.09L604.25,638.61L601.87,636.89L597.66,632.61L595.42,629.93L594.15,627.57L593.31,624.41L589.66,624.09L587.98,625.19L586.43,625.19L584.05,623.93L581.24,624.57L574.51,623.46L569.73,620.45L566.51,619.35L564.4,617.45L561.88,616.35L559.92,614.61L556.55,613.99L553.6,613.99L551.36,613.19L548.13,615.41L545.75,615.57L542.38,614.61L540.56,612.87L537.61,612.25L535.79,611.61L532.71,611.61L530.6,613.51L529.05,616.35L528.5,618.41L526.81,620.77L524.29,621.41L522.57,623.85L520.08,624.07L513.5,623L503.65,621.58L501.97,620.18L500.53,620.88L499.07,620.07L497.83,615.06L495.41,612.1L492.68,611.41L491.2,613.29L490.13,612.75L489.26,609.04L486.38,608.55L483.15,607.22L483.82,603.9L481.75,603.19L480.8,603.94L478.38,602.86L477.11,603.11L477.26,606.32L475.4,607.9L474.35,607.5L471.79,612.72L470.14,612.64L468.99,614.19L467.55,614.61L465.56,613.39L462.45,612.99L460.9,611.95L458.24,612.22L459.22,609.49L459.27,607.67L459.73,606.05L461.12,605.15L461.88,603.63L461.58,602.54L459.81,602.4L459.34,603.55L456.32,602.45L456.32,600.79L456.75,599.79L457.93,599.18L459.4,599.88L460.87,598.61L461.76,598.37L464.28,599.75L466.43,599.6L468.44,601.12L469.62,601.17L470.64,600.55L471.1,599.42L470.93,598.33L471.93,597.94L473.59,598.22L474.21,597.66L477.03,598.51L478.67,597.52L483.05,593.01L485.74,590.72L491.08,586.87L495.88,585.21L498.62,583.84L503.12,582.08L503.97,579.99L505.23,579.14L506.66,578.9L508.46,579.9L509.15,581.32L510.23,581.89L511.38,581.32L512.89,579.75L514.57,578.94L516.51,578.75L516.8,576.99L516.51,574.47L517.52,572.33L519.03,571.52L519.5,570.68L521.18,571.85L521.55,570.42L521.18,569.33L517.98,568.43L515.79,566.29L516.55,563.91L517.65,562.77L518.82,562.44L520.36,563.79L521.33,563.47L522.74,563.88L525.77,564.13L527.69,562.61L530.72,561.85L532.21,560.15L531.97,558.6L535.22,555.68L539.16,555.49L540.44,556.64L543.84,561.47L544.17,562.85L545.83,563.81L549.53,565.01L552.38,566.92L554.83,566.11L555.25,564.51L556.33,563.56L556.72,562.16L556.27,560.25L554.36,558.04L552.6,555.31L551.69,553.28L551.24,549.98L552.03,548.33L554.17,545.27L558.1,542.23L560.78,539.94L561.01,537.02L563.14,530.53L563.93,527.09L565.28,525.06L566.85,523.66L570.32,524.94L571.66,526.17L573.47,525.98L574.26,525.37L574.63,524.06L576.66,523.16L578.31,522.83L578.68,522.31L578.55,519.69L578.9,517.53L579.83,515.1L581.04,514.39L580.66,513.17L579.36,512.14L579.32,511.04L580.45,509.89L581.93,507.7L583.65,506.84L584.2,505.65L586.68,504.11L587.06,501.97L588.28,498.38L588.87,496.09L590.81,494.66L593.25,493.41L596.9,493.71L601.44,495.06L604.66,495.82L607.18,494.11L608.99,494.19L612.86,496.84L613.81,499.84L615.86,500.6L619.19,501.31L621.68,500.07L623.85,498.29L624.48,499.56L628.5,501.94L631.09,500.16L633.55,495.69L634.79,494.23L637.84,494.13L645.85,495.5L649.72,498.13L652.52,497.8L654.72,498.82L654.33,502.13L655.27,504.94L657.24,504.3L659.59,501.29L661.15,497.72L662.12,492.9L664.36,492L664.03,488.56L665.32,487.85L668.15,488.43L669.16,489.57L668.57,491.11L670.6,498.76L671.04,503.08L672.38,508.17L674.27,510.39L677.78,513.4L680.08,512.45L681.32,514.87L683.89,515.06L684.51,517.55L686.36,519.78L686.25,523.15L686.98,523.78L688.77,524.03L689.95,525.03L689.88,531.61L698.85,539.74L698.69,541.96L695.93,545.31L696.05,547.69L701.27,551.44L703.18,551.3L705.7,552.32L709.35,552.57L712.71,549.46L715.24,549.65L716.24,548.38L714.51,546.54L712.66,540.02L711.54,538.76L710.61,536.14L711.99,535.07L712.32,530.43L711.09,528.59L712.38,526.36L713.67,527.19L715.18,527.57L716.2,526.42L716.98,524.32L718.78,522.29L721.83,519.87L721.75,516.64L722.74,516.3L723.8,517.32L724.53,520.31L727.12,524.45L727.18,526.36L725.93,527.04L725.55,528.64L727.12,533.1L727.4,537.61L728.27,541.12L729.07,542.44L735.82,542.85L736.8,544.55L738.39,546.07L740.08,544.28L741.37,544.22L742.04,547.02L746.08,547.34L749.54,551.3L753.13,551.34L755.72,549.92L756.62,548.65L756.69,546.63L758.09,546.71L759.09,545.11Z" fill="#dadada" stroke="#fff" stroke-width="0.5" id="NP-P3" data-name="Bāgmatī"/>
</svg>